<?xml version="1.0" encoding="UTF-8"?>
<!DOCTYPE svg PUBLIC "-//W3C//DTD SVG 1.1//EN" "http://www.w3.org/Graphics/SVG/1.1/DTD/svg11.dtd">
<!-- Creator: CorelDRAW 2020 (64-Bit) -->
<svg xmlns="http://www.w3.org/2000/svg" xml:space="preserve" width="400mm" height="400mm" version="1.1" style="shape-rendering:geometricPrecision; text-rendering:geometricPrecision; image-rendering:optimizeQuality; fill-rule:evenodd; clip-rule:evenodd"
viewBox="0 0 40000 40000"
 xmlns:xlink="http://www.w3.org/1999/xlink"
 xmlns:xodm="http://www.corel.com/coreldraw/odm/2003">
 <defs>
  <style type="text/css">
   <![CDATA[
    .fil0 {fill:white;fill-rule:nonzero}
   ]]>
  </style>
 </defs>
 <g id="Layer_x0020_1">
  <metadata id="CorelCorpID_0Corel-Layer"/>
  <path class="fil0" d="M19994.24 12506.73c-4132.81,0 -7500,3367.19 -7500,7500 0,4132.8 3367.19,7499.99 7500,7499.99 4132.8,0 7499.99,-3367.19 7499.99,-7499.99 0,-4132.81 -3367.19,-7500 -7499.99,-7500zm19249.99 6289.06l-7398.44 -3695.31 2617.19 -7843.75c351.56,-1062.5 -656.25,-2070.31 -1710.94,-1710.94l-7843.75 2617.19 -3703.12 -7406.25c-499.99,-1000 -1921.87,-1000 -2421.86,0l-3695.31 7398.44 -7851.57 -2617.19c-1062.5,-351.56 -2070.31,656.25 -1710.94,1710.94l2617.19 7843.75 -7398.44 3703.13c-1000,500 -1000,1921.88 0,2421.87l7398.44 3695.31 -2617.19 7851.56c-351.56,1062.5 656.25,2070.31 1710.94,1710.94l7843.75 -2617.19 3695.31 7398.44c500,1000 1921.88,1000 2421.87,0l3695.31 -7398.44 7843.75 2617.19c1062.5,351.56 2070.31,-656.25 1710.94,-1710.94l-2617.19 -7843.75 7398.44 -3695.31c1015.63,-507.8 1015.63,-1929.68 15.63,-2429.68l-0.01 -0.01zm-12179.69 8281.24c-3898.44,3898.44 -10242.18,3898.44 -14140.61,0 -3898.44,-3898.44 -3898.44,-10242.18 0,-14140.61 3898.44,-3898.44 10242.18,-3898.44 14140.61,0 3898.44,3898.44 3898.44,10242.18 0,14140.61z"/>
 </g>
</svg>
